<?xml version="1.0" encoding="UTF-8"?> <svg xmlns="http://www.w3.org/2000/svg" id="_x33_0" height="512" viewBox="0 0 64 64" width="512"> <g> <path d="m58.272 45.313c-1.258-.839-2.652-1.39-4.144-1.639l-3.37-.562-.459-1.377c1.678-1.075 2.925-2.757 3.437-4.735h.264c2.206 0 4-1.794 4-4 0-.733-.213-1.412-.559-2.004.364-.966.559-1.97.559-2.996 0-5.447-3.335-8.999-9.157-9.807-.725-.735-1.731-1.193-2.843-1.193h-.313c-1.424 0-2.725.53-3.724 1.399-5.135 1.102-7.963 4.498-7.963 9.601 0 1.026.195 2.029.558 2.996-.345.592-.558 1.271-.558 2.004 0 .345.058.674.14.994-.797-1.875-2.117-3.514-3.868-4.681-1.258-.839-2.652-1.39-4.144-1.639l-3.37-.562-.459-1.377c.344-.22.669-.466.974-.735h.898c2.091 0 4.057-.814 5.536-2.293l.293-.293v-9.414c0-6.617-5.383-12-12-12s-12 5.383-12 12v9.414l.293.293c1.478 1.479 3.444 2.293 5.536 2.293h.898c.306.269.63.515.974.735l-.459 1.377-3.37.562c-1.492.249-2.886.8-4.144 1.639-2.96 1.974-4.728 5.276-4.728 8.834v8.853h30.767c-1.762 1.932-2.767 4.466-2.767 7.147v8.853h34v-8.853c0-3.558-1.768-6.86-4.728-8.834zm-6.811-.056-1.008 2.447-2.429-.972 2.234-1.676zm-9.719-.2 2.234 1.676-2.429.972-1.008-2.447zm7.081-1.424-2.823 2.117-2.823-2.118.344-1.031c.781.256 1.613.399 2.479.399s1.698-.143 2.48-.398zm3.177-8.633c0 3.309-2.691 6-6 6s-6-2.691-6-6v-4.91c0-1.338.652-2.557 1.733-3.297.91.875 2.118 1.447 3.479 1.561l4.959.414c1.043.087 1.829.943 1.829 1.992zm2 0v-4c1.103 0 2 .897 2 2s-.897 2-2 2zm-8.313-16h.313c1.103 0 2 .897 2 2s-.897 2-2 2h-2v2h2c2.206 0 4-1.794 4-4 0-.194-.031-.381-.057-.568 4.944 1.199 6.057 4.692 6.057 7.568 0 .495-.06.983-.172 1.463-.55-.286-1.166-.463-1.828-.463h-.418c-.597-1.226-1.789-2.104-3.244-2.225l-4.959-.414c-1.926-.16-3.379-1.74-3.379-3.674 0-2.033 1.654-3.687 3.687-3.687zm-5.442 2.04c-.158.522-.245 1.074-.245 1.647 0 .892.2 1.735.561 2.485-1.3.904-2.168 2.277-2.451 3.828h-.11c-.662 0-1.278.177-1.828.463-.112-.48-.172-.968-.172-1.463 0-2.437.809-5.416 4.245-6.96zm-2.245 9.96v4c-1.103 0-2-.897-2-2s.897-2 2-2zm0 6h.263c.512 1.979 1.759 3.66 3.437 4.735l-.459 1.377-3.37.562c-1.007.168-1.965.485-2.872.924v-6.452c0-1.168-.208-2.302-.568-3.377.656 1.317 2.002 2.231 3.569 2.231zm-14.539-7.743-1.008 2.447-2.429-.972 2.234-1.676zm.539-10.257c0 3.309-2.691 6-6 6s-6-2.691-6-6v-4.91c0-1.525.847-2.896 2.211-3.578l.071-.036c.59 1.478 2.034 2.524 3.718 2.524h3c1.654 0 3 1.346 3 3zm-16-6c0-5.514 4.486-10 10-10s10 4.486 10 10v8.567c-.862.753-1.914 1.211-3.04 1.363.659-1.162 1.04-2.502 1.04-3.93v-3c0-2.757-2.243-5-5-5h-3c-1.103 0-2-.897-2-2s.897-2 2-2v-2c-1.986 0-3.639 1.456-3.948 3.356l-.734.368c-2.047 1.022-3.318 3.078-3.318 5.366v4.91c0 1.428.381 2.768 1.04 3.93-1.125-.152-2.178-.61-3.04-1.363zm10 14c.866 0 1.698-.143 2.48-.398l.344 1.031-2.824 2.117-2.823-2.118.344-1.031c.781.256 1.613.399 2.479.399zm-4.258 2.057 2.234 1.676-2.429.972-1.008-2.447zm-10.742 9.09c0-2.888 1.435-5.568 3.837-7.17 1.021-.681 2.152-1.128 3.363-1.33l.314-.052 1.938 4.701 4.548-1.819v2.523h2v-2.523l4.547 1.819 1.938-4.701.314.052c1.211.202 2.342.649 3.363 1.33 2.403 1.602 3.838 4.282 3.838 7.17v6.853h-4v-8h-2v8h-18v-8h-2v8h-4zm58 22.853h-4v-8h-2v8h-18v-8h-2v8h-4v-6.853c0-2.888 1.435-5.568 3.837-7.17 1.021-.681 2.152-1.128 3.363-1.33l.314-.052 1.938 4.701 4.548-1.819v2.523h2v-2.523l4.547 1.819 1.938-4.701.314.052c1.211.202 2.342.649 3.363 1.33 2.403 1.602 3.838 4.282 3.838 7.17z"></path> <path d="m48 35.764c-.381.762-1.147 1.236-2 1.236s-1.619-.474-2-1.236l-.105-.211-1.789.895.105.211c.722 1.444 2.174 2.341 3.789 2.341s3.067-.897 3.789-2.342l.105-.211-1.789-.895z"></path> <circle cx="43" cy="32" r="1"></circle> <circle cx="49" cy="32" r="1"></circle> <path d="m45 59h8v-6h-8zm2-4h4v2h-4z"></path> <path d="m20 19.764c-.381.762-1.147 1.236-2 1.236s-1.619-.474-2-1.236l-.105-.211-1.789.895.105.211c.722 1.444 2.174 2.341 3.789 2.341s3.067-.897 3.789-2.342l.105-.211-1.789-.895z"></path> <circle cx="15" cy="16" r="1"></circle> <circle cx="21" cy="16" r="1"></circle> <path d="m25 37h-8v6h8zm-2 4h-4v-2h4z"></path> </g> </svg> 