<?xml version="1.0" encoding="UTF-8"?> <svg xmlns="http://www.w3.org/2000/svg" id="Outline" viewBox="0 0 512 512" width="512" height="512"> <path d="M72,464H360a8,8,0,0,0,7.544-5.338c.121-.343,12.257-34.878,24.207-81.683a900.89,900.89,0,0,0,18.629-91.368c24.339-6.935,39.418-10.561,55.639,7.7,14.806,16.669,6.738,33.776-8.309,59.969C449,368.438,440,384.111,440,400c0,13.257,5.8,20.793,10.664,24.781,6.234,5.112,14.771,7.832,25.371,8.089q.8.019,1.573.019a66.874,66.874,0,0,0,11.961-1.044,8,8,0,0,0-3.118-15.694c-4.748.924-18.614,2.051-25.669-3.764C457.564,409.735,456,405.684,456,400c0-11.62,7.569-24.8,15.584-38.749,6.915-12.037,14.065-24.485,16.956-37.29,3.56-15.767.106-29.268-10.559-41.273-20.719-23.326-42.464-20.464-65.33-14.315A453.946,453.946,0,0,0,416,216c0-51.028-21.854-94.391-63.2-125.4C316.7,63.527,266.841,48,216,48S115.3,63.527,79.2,90.6C37.854,121.609,16,164.972,16,216c0,104.173,46.478,237.057,48.456,242.662A8,8,0,0,0,72,464ZM399.177,200H296c-.268,0-.535.014-.8.04-.189.019-.374.052-.559.084-.072.012-.146.019-.217.033-.225.045-.444.1-.661.166-.032.009-.064.015-.1.025-.219.066-.432.145-.643.23-.03.012-.062.021-.093.034-.2.081-.385.174-.573.271-.045.023-.092.042-.136.065-.166.09-.325.189-.483.289-.063.04-.129.075-.191.116-.137.092-.266.194-.4.294-.077.059-.158.113-.233.174-.113.094-.218.2-.326.3-.083.077-.17.147-.25.227L268.686,224H163.314l-21.657-21.657A8,8,0,0,0,136,200H32.823a140.98,140.98,0,0,1,2.6-16H396.574A140.98,140.98,0,0,1,399.177,200ZM400,216a451.477,451.477,0,0,1-4.035,57.059C382.939,276.647,368.443,280,352,280c-19.362,0-33.27-11.545-41.334-34.314A125.543,125.543,0,0,1,304.459,216ZM88.8,103.4C122.186,78.36,168.548,64,216,64s93.814,14.36,127.2,39.4c17.783,13.337,37.907,34.153,48.785,64.6H40.016C50.894,137.553,71.018,116.737,88.8,103.4ZM132.686,216l21.657,21.657A8,8,0,0,0,160,240H272a8,8,0,0,0,5.657-2.343L289.5,225.812a134.874,134.874,0,0,0,5.947,24.831C305.835,280.315,325.39,296,352,296c15.583,0,29.2-2.6,41.5-5.729C382.482,360.737,360.693,428.8,354.272,448H77.728C69.015,421.941,32,305.919,32,216Z"></path> <path d="M96,320a8,8,0,0,0,16,0c0-17.729,17.695-24.119,18.564-24.422a8.011,8.011,0,0,0,.009-15.153C129.814,280.162,112,273.788,112,256a8,8,0,0,0-16,0c0,17.788-17.814,24.162-18.53,24.41a8.011,8.011,0,0,0-.043,15.165C78.186,295.838,96,302.212,96,320Zm8-39.907A44.53,44.53,0,0,0,111.9,288a44.53,44.53,0,0,0-7.9,7.907A44.53,44.53,0,0,0,96.1,288,44.53,44.53,0,0,0,104,280.093Z"></path> <path d="M293.428,399.575C294.186,399.838,312,406.212,312,424a8,8,0,0,0,16,0c0-17.788,17.814-24.162,18.53-24.41a8.011,8.011,0,0,0,.042-15.165C345.814,384.162,328,377.788,328,360a8,8,0,0,0-16,0c0,17.729-17.695,24.119-18.564,24.422a8.01,8.01,0,0,0-.008,15.153ZM320,384.093A44.53,44.53,0,0,0,327.9,392a44.53,44.53,0,0,0-7.9,7.907A44.53,44.53,0,0,0,312.1,392,44.53,44.53,0,0,0,320,384.093Z"></path> <path d="M160,376c0,29.444,2.853,44.29,9.848,51.241,4.845,4.816,10.529,4.8,13.578,4.761l.574,0c24,0,24-34.872,24-48,0-.16.47-16,8-16,7.554,0,8,15.866,8,16,0,13.128,0,48,24,48l.574,0c.2,0,.414,0,.638,0,3.16,0,8.414-.266,12.94-4.764,7-6.951,9.848-21.8,9.848-51.241,0-25.757,4.4-32.244,8.279-37.969C283.9,332.688,288,326.638,288,312c0-31.64-26.165-40-40-40-7.151,0-21.72,8.168-32,14.543C205.72,280.163,191.151,272,184,272c-13.835,0-40,8.36-40,40,0,14.643,4.1,20.693,7.721,26.031C155.6,343.751,160,350.238,160,376Zm23.854-88c3.438.5,16.109,7.205,27.82,14.733a8,8,0,0,0,8.653,0c10.219-6.572,24.083-14.193,27.819-14.733,3.056.029,23.854,1.08,23.854,24,0,9.731-1.975,12.644-4.964,17.053C262.119,336.3,256,345.326,256,376c0,35.065-4.654,39.549-5.1,39.9a11.609,11.609,0,0,1-2.227.1L248,416c-1.139,0-2.214,0-3.68-2.628-1.971-3.533-4.32-11.5-4.32-29.372a50.331,50.331,0,0,0-2.411-14.53C233.889,358.362,226.02,352,216,352c-18.984,0-24,20.932-24,32,0,17.876-2.349,25.839-4.32,29.372C186.214,416,185.139,416,184,416l-.674,0a17.11,17.11,0,0,1-2.141-.058c-.531-.4-5.185-4.88-5.185-39.945,0-30.669-6.119-39.694-11.036-46.947C161.975,324.639,160,321.726,160,312,160,289.076,180.8,288.025,183.854,288Z"></path> </svg> 