<?xml version="1.0" encoding="UTF-8"?> <svg xmlns="http://www.w3.org/2000/svg" id="Capa_1" height="512" viewBox="0 0 511.984 511.984" width="512"> <g> <path d="m511.621 258.327c.482-1.57.613-3.654-.42-5.708l-99.043-196.661c-13.018-25.849-39.083-41.907-68.025-41.907h-39.492c-11.096 0-21.748 4.088-29.996 11.512l-18.643 16.781-18.644-16.781c-8.247-7.423-18.899-11.512-29.995-11.512h-39.492c-28.942 0-55.008 16.058-68.025 41.907l-99.042 196.662c-.863 1.836-1.222 4.33 0 6.747l52.722 104.693-43.554-15.188c-3.911-1.364-8.188.701-9.552 4.612-1.363 3.911.701 8.188 4.612 9.551l140.895 49.133-4.909 14.167-131.047-45.684c-3.91-1.361-8.187.702-9.551 4.613-1.363 3.911.702 8.188 4.613 9.551l77.606 27.054 7.674 15.238c18.895 37.519 56.732 60.826 98.748 60.826h133.881c42.016 0 79.854-23.307 98.748-60.826l89.51-177.74c.127-.308.108-.201.421-1.04zm-398.379-195.622c10.454-20.758 31.387-33.654 54.629-33.654h39.492c7.384 0 14.472 2.72 19.96 7.66l23.661 21.298c2.852 2.567 7.184 2.567 10.035 0l23.66-21.297c5.488-4.94 12.577-7.661 19.961-7.661h39.492c23.242 0 44.175 12.896 54.629 33.654l93.565 185.788h-26.442l-95.884-107.808c-13.008-14.624-31.677-23.022-51.243-23.064-.049-.001-.096-.007-.145-.007h-125.22c-.049 0-.096.006-.145.007-19.567.042-38.237 8.44-51.243 23.064l-95.885 107.808h-26.442zm295.179 242.824c-.667-16.657-6.675-32.149-18.309-43.783-28.597-28.597-80.513-23.216-115.728 11.998-31.392 31.392-39.051 76.043-20.087 105.629h-60.906c-13.617.212-29.73-6.377-39.539-17.361l1.666-6.385c5.736-21.987 25.62-37.343 48.354-37.343h19.206c4.143 0 7.5-3.358 7.5-7.5s-3.357-7.5-7.5-7.5h-19.206c-28.442 0-53.444 18.494-61.937 45.362l-82.414-92.651 59.955-67.41c4.757 5.843 12.004 9.548 19.936 9.548h158.766c4.143 0 7.5-3.358 7.5-7.5s-3.357-7.5-7.5-7.5h-158.766c-4.191 0-7.919-2.484-9.648-6.116l23.448-26.364c9.166-10.306 21.931-16.642 35.563-17.82v18.563c0 4.142 3.357 7.5 7.5 7.5s7.5-3.358 7.5-7.5v-18.78h44.726v18.78c0 4.142 3.357 7.5 7.5 7.5s7.5-3.358 7.5-7.5v-18.78h44.726v18.78c0 4.142 3.357 7.5 7.5 7.5s7.5-3.358 7.5-7.5v-18.563c13.631 1.178 26.397 7.514 35.563 17.82l19.61 22.047c-.133 5.774-4.862 10.433-10.667 10.433h-34.464c-4.143 0-7.5 3.358-7.5 7.5s3.357 7.5 7.5 7.5h34.464c9.384 0 17.604-5.062 22.084-12.596l62.666 70.458zm-40.914 61.337c-29.363 29.364-71.764 34.748-94.512 11.998-22.75-22.75-17.368-65.148 11.996-94.513 17.117-17.116 38.656-26.083 58.157-26.083 13.954 0 26.868 4.596 36.356 14.085 13.279 13.279 16.957 33.253 11.891 53.421-.062.214-.115.429-.157.646-3.689 14.171-11.69 28.404-23.731 40.446zm-293.61 4.298-54.221-107.671h26.44l93.455 105.069c13.004 15.767 32.496 25.843 53.82 25.811h59.914l-33.757 33.757c-4.309 4.309-10.812 5.802-16.571 3.806l-42.877-14.856c3.015-6.57-.438-16.004-8.067-18.669zm334.397 59.196c-16.331 32.428-49.036 52.573-85.352 52.573h-133.88c-36.292.106-70.161-20.857-86.051-53.962l34.276 11.949c5.22 2.243 14.998-.676 17.492-8.481l.41-1.184 42.877 14.855c3.281 1.138 6.688 1.689 10.075 1.689 8.121 0 16.127-3.174 22.015-9.062l41.622-41.621c10.888 7.193 23.873 10.728 37.528 10.728 23.436 0 48.816-10.378 68.81-30.371 13.561-13.561 22.677-29.6 27.153-45.829l60.621-68.15h26.439z"></path> <path d="m371.728 280.131c-8.959-8.959-20.481-10.839-28.571-10.839-17.25 0-36.086 8.537-50.387 22.837-11.611 11.612-19.416 26.038-21.976 40.62-2.69 15.331.946 29.304 9.979 38.336 8.959 8.959 20.481 10.839 28.571 10.839 17.25 0 36.086-8.537 50.386-22.837 11.611-11.612 19.416-26.038 21.976-40.621 2.691-15.33-.946-29.302-9.978-38.335zm-22.606 68.35c-11.548 11.549-26.419 18.443-39.778 18.443-5.255 0-12.637-1.118-17.964-6.446-12.186-12.185-6.579-39.168 11.996-57.743 11.55-11.549 26.421-18.444 39.78-18.444 5.255 0 12.637 1.118 17.964 6.446 12.185 12.185 6.578 39.168-11.998 57.744z"></path> </g> </svg> 